<?xml version="1.0" standalone="no"?>
<!DOCTYPE svg PUBLIC "-//W3C//DTD SVG 20010904//EN"
 "http://www.w3.org/TR/2001/REC-SVG-20010904/DTD/svg10.dtd">
<svg version="1.0" xmlns="http://www.w3.org/2000/svg"
 width="12500.000000pt" height="12500.000000pt" viewBox="0 0 12500.000000 12500.000000"
 preserveAspectRatio="xMidYMid meet">

<g transform="translate(0.000000,12500.000000) scale(0.100000,-0.100000)"
fill="#000000" stroke="none">
<path d="M64500 117674 c-210 -10 -462 -26 -610 -40 -284 -25 -572 -54 -640
-65 -36 -5 -157 -22 -270 -38 -224 -32 -654 -108 -820 -146 -58 -13 -132 -29
-165 -35 -83 -16 -511 -122 -680 -169 -628 -171 -1340 -424 -1900 -673 -55
-25 -149 -67 -210 -93 -234 -103 -881 -438 -1160 -599 -1066 -618 -1991 -1323
-2864 -2181 -921 -906 -1656 -1851 -2335 -3005 -188 -318 -433 -788 -596
-1140 -34 -74 -70 -153 -80 -175 -74 -159 -202 -467 -302 -725 -435 -1124
-733 -2350 -863 -3545 -42 -386 -44 -409 -61 -660 -9 -138 -18 -463 -21 -765
-8 -738 10 -1138 82 -1792 35 -314 54 -454 116 -818 249 -1487 753 -2963 1467
-4300 920 -1723 2157 -3215 3677 -4434 558 -448 1240 -912 1815 -1236 52 -29
115 -66 140 -80 145 -88 710 -374 970 -492 74 -33 162 -73 195 -88 106 -48
431 -184 540 -226 262 -100 358 -135 580 -211 1000 -342 1939 -548 3095 -678
544 -61 1519 -88 2090 -57 488 27 659 41 1120 97 1299 156 2727 557 3940 1105
63 29 149 67 190 86 192 86 732 361 910 463 688 398 1068 645 1590 1035 1261
942 2390 2128 3275 3441 216 319 368 566 612 990 192 333 487 930 659 1335 41
96 86 200 99 230 166 389 455 1232 545 1590 12 47 32 121 45 165 84 289 223
939 286 1335 16 102 38 241 49 310 18 113 38 291 84 725 62 581 73 1643 26
2350 -15 221 -82 848 -105 985 -8 48 -26 165 -40 260 -34 227 -97 556 -169
885 -187 847 -511 1833 -861 2615 -25 58 -60 137 -77 175 -97 227 -397 811
-571 1115 -33 58 -77 134 -97 170 -20 36 -74 126 -119 200 -46 74 -95 155
-110 179 -50 83 -387 586 -455 681 -166 228 -209 285 -340 455 -406 525 -735
897 -1235 1395 -483 482 -945 883 -1466 1274 -517 388 -918 653 -1485 981
-289 167 -921 491 -1155 593 -38 17 -122 53 -185 82 -63 28 -146 64 -185 80
-38 15 -133 54 -210 85 -370 151 -788 295 -1300 451 -183 55 -676 180 -880
223 -77 17 -169 37 -205 45 -196 45 -662 122 -1095 181 -111 15 -699 70 -925
86 -140 10 -1197 20 -1350 13z"/>
<path d="M57447 58503 c-139 -3 -189 -7 -193 -16 -2 -7 20 -114 50 -237 214
-876 383 -2074 510 -3610 58 -696 91 -1246 101 -1675 3 -137 127 -5330 275
-11540 148 -6209 274 -11488 280 -11730 11 -502 23 -688 52 -830 34 -170 212
-864 308 -1200 336 -1179 774 -2361 1325 -3575 175 -387 578 -1206 800 -1625
596 -1131 1347 -2390 2315 -3885 752 -1163 1600 -2162 2680 -3160 1145 -1058
2534 -2057 4090 -2942 455 -259 828 -457 1347 -717 2275 -1138 4835 -2053
7463 -2669 1168 -274 2422 -472 2920 -460 127 2 152 6 167 21 17 17 18 615 20
14465 1 10449 5 14700 13 15360 11 816 11 915 -3 930 -9 9 -57 127 -108 262
-863 2299 -2197 4989 -3509 7075 -1037 1650 -2044 2990 -3175 4225 -211 230
-923 945 -1145 1150 -1961 1809 -4440 3271 -7460 4398 -2505 935 -5428 1624
-8150 1921 -531 58 -695 69 -973 64z"/>
<path d="M82143 49285 c0 -44 2 -61 4 -37 2 23 2 59 0 80 -2 20 -4 1 -4 -43z"/>
<path d="M82133 49005 c0 -38 2 -53 4 -32 2 20 2 52 0 70 -2 17 -4 1 -4 -38z"/>
</g>
</svg>
