<?xml version="1.0" standalone="no"?>
<!DOCTYPE svg PUBLIC "-//W3C//DTD SVG 20010904//EN"
 "http://www.w3.org/TR/2001/REC-SVG-20010904/DTD/svg10.dtd">
<svg version="1.0" xmlns="http://www.w3.org/2000/svg"
 width="12500.000000pt" height="12500.000000pt" viewBox="0 0 12500.000000 12500.000000"
 preserveAspectRatio="xMidYMid meet">

<g transform="translate(0.000000,12500.000000) scale(0.100000,-0.100000)"
fill="#000000" stroke="none">
<path d="M64715 117513 c-600 -30 -1006 -70 -1560 -152 -1398 -208 -2796 -651
-4085 -1295 -728 -364 -1354 -745 -2001 -1217 -600 -437 -1086 -855 -1645
-1413 -644 -645 -1090 -1175 -1627 -1937 -247 -352 -518 -790 -802 -1299 -88
-158 -379 -739 -433 -865 -17 -38 -54 -122 -82 -185 -457 -1009 -845 -2319
-1021 -3445 -17 -110 -37 -240 -45 -290 -8 -49 -25 -196 -39 -325 -13 -129
-29 -271 -35 -315 -16 -132 -38 -452 -51 -750 -13 -317 -7 -1209 11 -1475 22
-337 107 -1154 125 -1208 2 -6 20 -114 40 -240 72 -463 210 -1084 350 -1577
82 -289 258 -827 338 -1035 234 -609 375 -935 609 -1405 493 -988 1114 -1936
1812 -2765 300 -356 503 -577 841 -915 842 -843 1716 -1524 2765 -2153 77 -47
111 -65 340 -194 572 -320 1133 -581 1805 -841 256 -99 748 -265 1000 -338
553 -158 1022 -268 1525 -355 404 -69 474 -79 1045 -144 669 -77 1935 -79
2670 -5 373 37 646 73 1015 134 208 34 247 42 550 105 1380 290 2749 808 3955
1496 306 175 393 227 655 394 897 570 1831 1340 2579 2126 311 327 690 764
903 1041 31 41 97 126 145 189 346 450 756 1075 1060 1615 280 496 597 1159
796 1665 108 274 144 369 224 600 419 1204 672 2451 759 3739 21 319 30 1218
15 1562 -12 282 -36 630 -52 769 -71 623 -71 620 -138 1015 -93 544 -199 1014
-346 1525 -85 298 -270 856 -360 1085 -105 268 -232 583 -255 630 -5 11 -32
70 -58 130 -98 221 -119 266 -274 575 -139 278 -315 607 -413 770 -18 30 -68
113 -109 183 -232 391 -574 895 -871 1283 -831 1088 -1796 2034 -2890 2835
-431 316 -894 615 -1350 874 -66 37 -154 87 -196 111 -131 74 -535 279 -729
369 -102 47 -203 94 -225 105 -292 137 -882 369 -1280 502 -1223 409 -2473
641 -3813 708 -180 9 -990 11 -1147 3z m965 -13 c1676 -57 3254 -387 4750
-993 1758 -711 3313 -1742 4660 -3087 926 -927 1702 -1955 2361 -3130 114
-205 409 -786 481 -950 26 -58 70 -157 98 -220 58 -130 120 -277 192 -460 535
-1351 856 -2753 962 -4210 50 -677 46 -1515 -9 -2190 -216 -2628 -1133 -5092
-2684 -7210 -434 -593 -857 -1086 -1396 -1626 -314 -315 -510 -497 -810 -754
-1172 -1002 -2518 -1815 -3915 -2365 -342 -134 -401 -156 -728 -265 -1268
-422 -2517 -648 -3872 -701 -319 -13 -994 -7 -1290 11 -2281 135 -4413 790
-6350 1950 -1547 926 -2926 2170 -4017 3625 -540 720 -1008 1486 -1404 2300
-105 215 -134 278 -246 535 -592 1357 -973 2841 -1107 4310 -55 600 -71 997
-62 1540 13 871 88 1623 242 2445 166 882 426 1784 744 2580 134 335 188 461
345 800 67 147 306 618 393 775 458 832 960 1568 1566 2295 459 551 1068 1168
1626 1646 1562 1341 3373 2307 5355 2858 1309 363 2765 537 4115 491z"/>
<path d="M81960 39208 c0 -78 2 -139 4 -137 8 10 14 279 5 279 -5 0 -9 -63 -9
-142z"/>
</g>
</svg>
